<svg width="46" height="45" viewBox="0 0 46 45" fill="none" xmlns="http://www.w3.org/2000/svg">
<path fill-rule="evenodd" clip-rule="evenodd" d="M0.884766 6.32039C0.884766 2.83081 3.71363 0.00195312 7.2032 0.00195312H10.092C11.9041 0.00195312 13.4837 1.23522 13.9232 2.9932L16.2521 12.3091C16.6375 13.8505 16.0615 15.4727 14.7904 16.4261L12.0659 18.4695C11.783 18.6817 11.7214 18.9924 11.8009 19.2093C14.1925 25.738 19.3778 30.9233 25.9064 33.3149C26.1234 33.3943 26.4341 33.3328 26.6463 33.0499L28.6897 30.3253C29.643 29.0543 31.2653 28.4783 32.8067 28.8636L42.1226 31.1926C43.8806 31.6321 45.1138 33.2117 45.1138 35.0237V37.9126C45.1138 41.4021 42.285 44.231 38.7954 44.231H34.0566C15.7363 44.231 0.884766 29.3795 0.884766 11.0592V6.32039Z" fill="black"/>
</svg>
